<svg width="107" height="22" viewBox="0 0 107 22" fill="none" xmlns="http://www.w3.org/2000/svg">
  <path d="M8.14101 16.2392H22.6175L21.0123 21.4891H3.81935C1.25616 21.4891 -0.578947 19.011 0.170423 16.5585L5.07966 0.506677H12.9523L8.14101 16.2392ZM33.2279 13.2162H46.4952C46.4228 12.4966 46.427 11.7558 46.5207 11.0021C46.6144 10.2442 46.789 9.50764 47.0402 8.78808H34.5819L35.5058 5.76505H48.6198C49.3905 4.67931 50.34 3.67873 51.4342 2.78885L52.1282 0.515193H29.2384L24.3291 16.5671C23.5798 19.0195 25.4149 21.4976 27.978 21.4976H45.7117L47.3169 16.2477H32.2997L33.2279 13.2162ZM98.5722 0.510935L95.051 12.024C92.8412 8.7455 90.6314 5.467 88.4174 2.19276C87.7106 1.14109 86.5269 0.510935 85.2581 0.510935H80.2765C79.5356 2.93787 78.7905 5.36482 78.0497 7.79601C78.2668 8.81788 78.3179 9.8951 78.1816 11.0021C77.8879 13.378 76.7766 15.6005 75.0862 17.4953C74.6775 18.8279 74.273 20.1606 73.8643 21.4933H81.7369L85.2964 9.85252C87.915 13.7314 90.5292 17.6145 93.1478 21.4933H100.033C102.17 14.4978 104.307 7.50223 106.445 0.510935H98.5722ZM76.2827 10.9979C75.5376 17.0737 68.6953 21.9957 61.0015 21.9957C53.3076 21.9957 47.6746 17.0695 48.4197 10.9979C49.1648 4.92626 56.0071 0 63.7009 0C71.3947 0 77.0278 4.92626 76.2827 10.9979ZM62.9941 5.76079C59.3282 5.76079 56.0709 8.10683 55.7133 10.9979C55.3599 13.8932 58.0423 16.235 61.704 16.235C65.37 16.235 68.6272 13.8889 68.9848 10.9979C69.3425 8.10683 66.6601 5.76079 62.9941 5.76079Z" fill="white"/>
</svg>
